<mxfile host="app.diagrams.net" agent="Mozilla/5.0 (Windows NT 10.0; Win64; x64) AppleWebKit/537.36 (KHTML, like Gecko) Chrome/137.0.0.0 Safari/537.36" version="27.1.6">
  <diagram name="Página-1" id="A1Im2dUDXezdaI4l4JIj">
    <mxGraphModel dx="1399" dy="1100" grid="0" gridSize="10" guides="1" tooltips="1" connect="1" arrows="1" fold="1" page="0" pageScale="1" pageWidth="827" pageHeight="1169" math="0" shadow="0">
      <root>
        <mxCell id="0" />
        <mxCell id="1" parent="0" />
        <mxCell id="zQQTilzazwNve5VcJps1-1" value="ID" style="rounded=0;whiteSpace=wrap;html=1;fontStyle=4" vertex="1" parent="1">
          <mxGeometry x="-107" y="30" width="79" height="33" as="geometry" />
        </mxCell>
        <mxCell id="zQQTilzazwNve5VcJps1-2" value="Doador" style="text;html=1;align=center;verticalAlign=middle;resizable=0;points=[];autosize=1;strokeColor=none;fillColor=none;fontSize=16;" vertex="1" parent="1">
          <mxGeometry x="-107" y="-1" width="70" height="31" as="geometry" />
        </mxCell>
        <mxCell id="zQQTilzazwNve5VcJps1-3" value="Nome" style="rounded=0;whiteSpace=wrap;html=1;" vertex="1" parent="1">
          <mxGeometry x="-28" y="30" width="108" height="33" as="geometry" />
        </mxCell>
        <mxCell id="zQQTilzazwNve5VcJps1-4" value="CPF_CNPJ" style="rounded=0;whiteSpace=wrap;html=1;" vertex="1" parent="1">
          <mxGeometry x="80" y="30" width="108" height="33" as="geometry" />
        </mxCell>
        <mxCell id="zQQTilzazwNve5VcJps1-5" value="E-mail" style="rounded=0;whiteSpace=wrap;html=1;" vertex="1" parent="1">
          <mxGeometry x="188" y="30" width="108" height="33" as="geometry" />
        </mxCell>
        <mxCell id="zQQTilzazwNve5VcJps1-6" value="Telefone" style="rounded=0;whiteSpace=wrap;html=1;" vertex="1" parent="1">
          <mxGeometry x="296" y="30" width="108" height="33" as="geometry" />
        </mxCell>
        <mxCell id="zQQTilzazwNve5VcJps1-7" value="Doação" style="text;html=1;align=center;verticalAlign=middle;resizable=0;points=[];autosize=1;strokeColor=none;fillColor=none;fontSize=16;" vertex="1" parent="1">
          <mxGeometry x="540" y="-1" width="73" height="31" as="geometry" />
        </mxCell>
        <mxCell id="zQQTilzazwNve5VcJps1-58" style="edgeStyle=elbowEdgeStyle;rounded=0;orthogonalLoop=1;jettySize=auto;html=1;fontSize=12;startSize=8;endSize=8;startArrow=classic;startFill=1;endArrow=none;" edge="1" parent="1" source="zQQTilzazwNve5VcJps1-9">
          <mxGeometry relative="1" as="geometry">
            <mxPoint x="1054" y="81" as="targetPoint" />
            <mxPoint x="584" y="124" as="sourcePoint" />
            <Array as="points">
              <mxPoint x="590" y="93" />
            </Array>
          </mxGeometry>
        </mxCell>
        <mxCell id="zQQTilzazwNve5VcJps1-9" value="ID" style="rounded=0;whiteSpace=wrap;html=1;fontStyle=4" vertex="1" parent="1">
          <mxGeometry x="540" y="30" width="108" height="33" as="geometry" />
        </mxCell>
        <mxCell id="zQQTilzazwNve5VcJps1-10" value="Data_da _doacao" style="rounded=0;whiteSpace=wrap;html=1;" vertex="1" parent="1">
          <mxGeometry x="648" y="30" width="108" height="33" as="geometry" />
        </mxCell>
        <mxCell id="zQQTilzazwNve5VcJps1-11" value="Instituição" style="text;html=1;align=center;verticalAlign=middle;resizable=0;points=[];autosize=1;strokeColor=none;fillColor=none;fontSize=16;" vertex="1" parent="1">
          <mxGeometry x="-117" y="182" width="90" height="31" as="geometry" />
        </mxCell>
        <mxCell id="zQQTilzazwNve5VcJps1-12" value="CNPJ" style="rounded=0;whiteSpace=wrap;html=1;fontStyle=4" vertex="1" parent="1">
          <mxGeometry x="-107" y="213" width="108" height="33" as="geometry" />
        </mxCell>
        <mxCell id="zQQTilzazwNve5VcJps1-13" value="Nome" style="rounded=0;whiteSpace=wrap;html=1;" vertex="1" parent="1">
          <mxGeometry x="1" y="213" width="108" height="33" as="geometry" />
        </mxCell>
        <mxCell id="zQQTilzazwNve5VcJps1-14" value="Endereco" style="rounded=0;whiteSpace=wrap;html=1;" vertex="1" parent="1">
          <mxGeometry x="109" y="213" width="108" height="33" as="geometry" />
        </mxCell>
        <mxCell id="zQQTilzazwNve5VcJps1-15" value="Telefone" style="rounded=0;whiteSpace=wrap;html=1;" vertex="1" parent="1">
          <mxGeometry x="217" y="213" width="108" height="33" as="geometry" />
        </mxCell>
        <mxCell id="zQQTilzazwNve5VcJps1-16" value="Voluntário" style="text;html=1;align=center;verticalAlign=middle;resizable=0;points=[];autosize=1;strokeColor=none;fillColor=none;fontSize=16;" vertex="1" parent="1">
          <mxGeometry x="479" y="182" width="89" height="31" as="geometry" />
        </mxCell>
        <mxCell id="zQQTilzazwNve5VcJps1-17" value="CPF" style="rounded=0;whiteSpace=wrap;html=1;fontStyle=4" vertex="1" parent="1">
          <mxGeometry x="479" y="213" width="108" height="33" as="geometry" />
        </mxCell>
        <mxCell id="zQQTilzazwNve5VcJps1-18" value="Nome" style="rounded=0;whiteSpace=wrap;html=1;" vertex="1" parent="1">
          <mxGeometry x="587" y="213" width="108" height="33" as="geometry" />
        </mxCell>
        <mxCell id="zQQTilzazwNve5VcJps1-19" value="Telefone" style="rounded=0;whiteSpace=wrap;html=1;" vertex="1" parent="1">
          <mxGeometry x="695" y="213" width="108" height="33" as="geometry" />
        </mxCell>
        <mxCell id="zQQTilzazwNve5VcJps1-20" value="ItemDoado" style="text;html=1;align=center;verticalAlign=middle;resizable=0;points=[];autosize=1;strokeColor=none;fillColor=none;fontSize=16;" vertex="1" parent="1">
          <mxGeometry x="-109" y="346" width="96" height="31" as="geometry" />
        </mxCell>
        <mxCell id="zQQTilzazwNve5VcJps1-55" style="edgeStyle=elbowEdgeStyle;rounded=0;orthogonalLoop=1;jettySize=auto;html=1;fontSize=12;startSize=8;endSize=8;startArrow=classic;startFill=1;endArrow=none;exitX=0;exitY=0.5;exitDx=0;exitDy=0;" edge="1" parent="1">
          <mxGeometry relative="1" as="geometry">
            <mxPoint x="-194" y="530" as="targetPoint" />
            <mxPoint x="-107" y="396.5" as="sourcePoint" />
            <Array as="points">
              <mxPoint x="-194" y="463" />
            </Array>
          </mxGeometry>
        </mxCell>
        <mxCell id="zQQTilzazwNve5VcJps1-21" value="ID" style="rounded=0;whiteSpace=wrap;html=1;fontStyle=4" vertex="1" parent="1">
          <mxGeometry x="-107" y="377" width="108" height="33" as="geometry" />
        </mxCell>
        <mxCell id="zQQTilzazwNve5VcJps1-22" value="Nome" style="rounded=0;whiteSpace=wrap;html=1;" vertex="1" parent="1">
          <mxGeometry x="1" y="377" width="108" height="33" as="geometry" />
        </mxCell>
        <mxCell id="zQQTilzazwNve5VcJps1-23" value="Descricao" style="rounded=0;whiteSpace=wrap;html=1;" vertex="1" parent="1">
          <mxGeometry x="109" y="377" width="108" height="33" as="geometry" />
        </mxCell>
        <mxCell id="zQQTilzazwNve5VcJps1-24" value="CategoriaDoItem" style="text;html=1;align=center;verticalAlign=middle;resizable=0;points=[];autosize=1;strokeColor=none;fillColor=none;fontSize=16;" vertex="1" parent="1">
          <mxGeometry x="405" y="346" width="139" height="31" as="geometry" />
        </mxCell>
        <mxCell id="zQQTilzazwNve5VcJps1-25" value="ID" style="rounded=0;whiteSpace=wrap;html=1;fontStyle=4" vertex="1" parent="1">
          <mxGeometry x="405" y="377" width="108" height="33" as="geometry" />
        </mxCell>
        <mxCell id="zQQTilzazwNve5VcJps1-26" value="Nome" style="rounded=0;whiteSpace=wrap;html=1;" vertex="1" parent="1">
          <mxGeometry x="513" y="377" width="108" height="33" as="geometry" />
        </mxCell>
        <mxCell id="zQQTilzazwNve5VcJps1-27" value="TransacaoDeDoacao" style="text;html=1;align=center;verticalAlign=middle;resizable=0;points=[];autosize=1;strokeColor=none;fillColor=none;fontSize=16;" vertex="1" parent="1">
          <mxGeometry x="-109" y="527" width="169" height="31" as="geometry" />
        </mxCell>
        <mxCell id="zQQTilzazwNve5VcJps1-28" value="ID" style="rounded=0;whiteSpace=wrap;html=1;fontStyle=4" vertex="1" parent="1">
          <mxGeometry x="-107" y="558" width="108" height="33" as="geometry" />
        </mxCell>
        <mxCell id="zQQTilzazwNve5VcJps1-29" value="Data_da_entrega" style="rounded=0;whiteSpace=wrap;html=1;" vertex="1" parent="1">
          <mxGeometry x="1" y="558" width="108" height="33" as="geometry" />
        </mxCell>
        <mxCell id="zQQTilzazwNve5VcJps1-30" value="Receptor" style="text;html=1;align=center;verticalAlign=middle;resizable=0;points=[];autosize=1;strokeColor=none;fillColor=none;fontSize=16;" vertex="1" parent="1">
          <mxGeometry x="450" y="514" width="83" height="31" as="geometry" />
        </mxCell>
        <mxCell id="zQQTilzazwNve5VcJps1-33" value="Nome" style="rounded=0;whiteSpace=wrap;html=1;" vertex="1" parent="1">
          <mxGeometry x="558" y="546" width="108" height="33" as="geometry" />
        </mxCell>
        <mxCell id="zQQTilzazwNve5VcJps1-34" value="ID" style="rounded=0;whiteSpace=wrap;html=1;fontStyle=4" vertex="1" parent="1">
          <mxGeometry x="450" y="546" width="108" height="33" as="geometry" />
        </mxCell>
        <mxCell id="zQQTilzazwNve5VcJps1-35" value="CPF" style="rounded=0;whiteSpace=wrap;html=1;" vertex="1" parent="1">
          <mxGeometry x="666" y="546" width="108" height="33" as="geometry" />
        </mxCell>
        <mxCell id="zQQTilzazwNve5VcJps1-36" value="Endereco" style="rounded=0;whiteSpace=wrap;html=1;" vertex="1" parent="1">
          <mxGeometry x="774" y="546" width="108" height="33" as="geometry" />
        </mxCell>
        <mxCell id="zQQTilzazwNve5VcJps1-37" value="Composicao_familiar" style="rounded=0;whiteSpace=wrap;html=1;" vertex="1" parent="1">
          <mxGeometry x="882" y="546" width="134" height="33" as="geometry" />
        </mxCell>
        <mxCell id="zQQTilzazwNve5VcJps1-39" style="edgeStyle=elbowEdgeStyle;rounded=0;orthogonalLoop=1;jettySize=auto;html=1;exitX=0.5;exitY=1;exitDx=0;exitDy=0;fontSize=12;startSize=8;endSize=8;elbow=vertical;entryX=0.405;entryY=1;entryDx=0;entryDy=0;entryPerimeter=0;" edge="1" parent="1" source="zQQTilzazwNve5VcJps1-38" target="zQQTilzazwNve5VcJps1-1">
          <mxGeometry relative="1" as="geometry">
            <mxPoint x="-80" y="121" as="targetPoint" />
            <Array as="points">
              <mxPoint x="364" y="94" />
            </Array>
          </mxGeometry>
        </mxCell>
        <mxCell id="zQQTilzazwNve5VcJps1-38" value="ID_doador" style="rounded=0;whiteSpace=wrap;html=1;" vertex="1" parent="1">
          <mxGeometry x="756" y="30" width="108" height="33" as="geometry" />
        </mxCell>
        <mxCell id="zQQTilzazwNve5VcJps1-42" style="edgeStyle=elbowEdgeStyle;rounded=0;orthogonalLoop=1;jettySize=auto;html=1;exitX=0.5;exitY=1;exitDx=0;exitDy=0;fontSize=12;startSize=8;endSize=8;elbow=vertical;entryX=0.5;entryY=1;entryDx=0;entryDy=0;" edge="1" parent="1" source="zQQTilzazwNve5VcJps1-41" target="zQQTilzazwNve5VcJps1-12">
          <mxGeometry relative="1" as="geometry">
            <mxPoint x="-60" y="267" as="targetPoint" />
            <Array as="points">
              <mxPoint x="438" y="277" />
            </Array>
          </mxGeometry>
        </mxCell>
        <mxCell id="zQQTilzazwNve5VcJps1-41" value="CNPJ_instituicao" style="rounded=0;whiteSpace=wrap;html=1;" vertex="1" parent="1">
          <mxGeometry x="864" y="30" width="108" height="33" as="geometry" />
        </mxCell>
        <mxCell id="zQQTilzazwNve5VcJps1-44" style="edgeStyle=elbowEdgeStyle;rounded=0;orthogonalLoop=1;jettySize=auto;html=1;exitX=0.5;exitY=1;exitDx=0;exitDy=0;fontSize=12;startSize=8;endSize=8;elbow=vertical;entryX=0.75;entryY=1;entryDx=0;entryDy=0;" edge="1" parent="1" source="zQQTilzazwNve5VcJps1-43" target="zQQTilzazwNve5VcJps1-12">
          <mxGeometry relative="1" as="geometry">
            <mxPoint x="-32" y="327" as="targetPoint" />
            <Array as="points">
              <mxPoint x="417" y="296" />
            </Array>
          </mxGeometry>
        </mxCell>
        <mxCell id="zQQTilzazwNve5VcJps1-43" value="CNPJ_instituicao" style="rounded=0;whiteSpace=wrap;html=1;" vertex="1" parent="1">
          <mxGeometry x="803" y="213" width="108" height="33" as="geometry" />
        </mxCell>
        <mxCell id="zQQTilzazwNve5VcJps1-46" style="edgeStyle=elbowEdgeStyle;rounded=0;orthogonalLoop=1;jettySize=auto;html=1;exitX=0.5;exitY=1;exitDx=0;exitDy=0;fontSize=12;startSize=8;endSize=8;elbow=vertical;entryX=0.5;entryY=1;entryDx=0;entryDy=0;" edge="1" parent="1" source="zQQTilzazwNve5VcJps1-45" target="zQQTilzazwNve5VcJps1-25">
          <mxGeometry relative="1" as="geometry">
            <mxPoint x="465" y="436" as="targetPoint" />
            <Array as="points">
              <mxPoint x="372" y="440" />
            </Array>
          </mxGeometry>
        </mxCell>
        <mxCell id="zQQTilzazwNve5VcJps1-45" value="ID_categoria" style="rounded=0;whiteSpace=wrap;html=1;" vertex="1" parent="1">
          <mxGeometry x="217" y="377" width="108" height="33" as="geometry" />
        </mxCell>
        <mxCell id="zQQTilzazwNve5VcJps1-48" style="edgeStyle=elbowEdgeStyle;rounded=0;orthogonalLoop=1;jettySize=auto;html=1;exitX=0.5;exitY=1;exitDx=0;exitDy=0;fontSize=12;startSize=8;endSize=8;elbow=vertical;entryX=0.5;entryY=1;entryDx=0;entryDy=0;" edge="1" parent="1" source="zQQTilzazwNve5VcJps1-47" target="zQQTilzazwNve5VcJps1-34">
          <mxGeometry relative="1" as="geometry">
            <mxPoint x="306.33333333333326" y="693.3333333333333" as="targetPoint" />
            <Array as="points">
              <mxPoint x="332" y="604" />
            </Array>
          </mxGeometry>
        </mxCell>
        <mxCell id="zQQTilzazwNve5VcJps1-47" value="ID_receptor" style="rounded=0;whiteSpace=wrap;html=1;" vertex="1" parent="1">
          <mxGeometry x="109" y="558" width="108" height="33" as="geometry" />
        </mxCell>
        <mxCell id="zQQTilzazwNve5VcJps1-49" value="ItensDaDoacao" style="text;strokeColor=none;fillColor=none;html=1;align=center;verticalAlign=middle;whiteSpace=wrap;rounded=0;fontSize=16;" vertex="1" parent="1">
          <mxGeometry x="-109" y="735" width="144" height="30" as="geometry" />
        </mxCell>
        <mxCell id="zQQTilzazwNve5VcJps1-57" style="edgeStyle=elbowEdgeStyle;rounded=0;orthogonalLoop=1;jettySize=auto;html=1;exitX=0.5;exitY=1;exitDx=0;exitDy=0;fontSize=12;startSize=8;endSize=8;elbow=vertical;endArrow=none;startFill=0;" edge="1" parent="1" source="zQQTilzazwNve5VcJps1-51">
          <mxGeometry relative="1" as="geometry">
            <mxPoint x="1054" y="81" as="targetPoint" />
            <Array as="points">
              <mxPoint x="269" y="827" />
            </Array>
          </mxGeometry>
        </mxCell>
        <mxCell id="zQQTilzazwNve5VcJps1-51" value="ID_doacao" style="rounded=0;whiteSpace=wrap;html=1;fontStyle=4" vertex="1" parent="1">
          <mxGeometry x="-107" y="765" width="108" height="33" as="geometry" />
        </mxCell>
        <mxCell id="zQQTilzazwNve5VcJps1-54" style="edgeStyle=elbowEdgeStyle;rounded=0;orthogonalLoop=1;jettySize=auto;html=1;exitX=0.5;exitY=0;exitDx=0;exitDy=0;fontSize=12;startSize=8;endSize=8;elbow=vertical;endArrow=none;startFill=0;" edge="1" parent="1" source="zQQTilzazwNve5VcJps1-52">
          <mxGeometry relative="1" as="geometry">
            <mxPoint x="-194" y="529" as="targetPoint" />
          </mxGeometry>
        </mxCell>
        <mxCell id="zQQTilzazwNve5VcJps1-52" value="ID_item_doado" style="rounded=0;whiteSpace=wrap;html=1;fontStyle=4" vertex="1" parent="1">
          <mxGeometry x="1" y="765" width="108" height="33" as="geometry" />
        </mxCell>
        <mxCell id="zQQTilzazwNve5VcJps1-59" value="Quantidade" style="rounded=0;whiteSpace=wrap;html=1;" vertex="1" parent="1">
          <mxGeometry x="109" y="765" width="108" height="33" as="geometry" />
        </mxCell>
        <mxCell id="zQQTilzazwNve5VcJps1-60" value="Data_de_validade" style="rounded=0;whiteSpace=wrap;html=1;" vertex="1" parent="1">
          <mxGeometry x="217" y="765" width="108" height="33" as="geometry" />
        </mxCell>
        <mxCell id="zQQTilzazwNve5VcJps1-61" value="&lt;span&gt;ItensDaTransacao&lt;/span&gt;" style="text;strokeColor=none;fillColor=none;html=1;align=center;verticalAlign=middle;whiteSpace=wrap;rounded=0;fontSize=16;fontStyle=0" vertex="1" parent="1">
          <mxGeometry x="469" y="650" width="183" height="30" as="geometry" />
        </mxCell>
        <mxCell id="zQQTilzazwNve5VcJps1-66" style="edgeStyle=elbowEdgeStyle;rounded=0;orthogonalLoop=1;jettySize=auto;html=1;exitX=0;exitY=0.5;exitDx=0;exitDy=0;fontSize=12;startSize=8;endSize=8;entryX=0;entryY=0.75;entryDx=0;entryDy=0;" edge="1" parent="1" source="zQQTilzazwNve5VcJps1-62" target="zQQTilzazwNve5VcJps1-21">
          <mxGeometry relative="1" as="geometry">
            <mxPoint x="-198" y="476" as="targetPoint" />
            <Array as="points">
              <mxPoint x="-216" y="605" />
            </Array>
          </mxGeometry>
        </mxCell>
        <mxCell id="zQQTilzazwNve5VcJps1-62" value="ID_item_doado" style="rounded=0;whiteSpace=wrap;html=1;fontStyle=4" vertex="1" parent="1">
          <mxGeometry x="479" y="680" width="108" height="33" as="geometry" />
        </mxCell>
        <mxCell id="zQQTilzazwNve5VcJps1-67" style="edgeStyle=elbowEdgeStyle;rounded=0;orthogonalLoop=1;jettySize=auto;html=1;exitX=0.5;exitY=0;exitDx=0;exitDy=0;fontSize=12;startSize=8;endSize=8;elbow=vertical;entryX=0.5;entryY=1;entryDx=0;entryDy=0;" edge="1" parent="1" source="zQQTilzazwNve5VcJps1-63" target="zQQTilzazwNve5VcJps1-28">
          <mxGeometry relative="1" as="geometry">
            <mxPoint x="641" y="622.6666666666667" as="targetPoint" />
          </mxGeometry>
        </mxCell>
        <mxCell id="zQQTilzazwNve5VcJps1-63" value="ID_transacao" style="rounded=0;whiteSpace=wrap;html=1;fontStyle=4" vertex="1" parent="1">
          <mxGeometry x="587" y="680" width="108" height="33" as="geometry" />
        </mxCell>
        <mxCell id="zQQTilzazwNve5VcJps1-64" value="Quantidade" style="rounded=0;whiteSpace=wrap;html=1;" vertex="1" parent="1">
          <mxGeometry x="695" y="680" width="108" height="33" as="geometry" />
        </mxCell>
      </root>
    </mxGraphModel>
  </diagram>
</mxfile>
